<?xml version="1.0" encoding="UTF-8"?>
<svg width="71.179mm" height="71.24mm" version="1.1" viewBox="0 0 71.179 71.24" xmlns="http://www.w3.org/2000/svg">
<g transform="translate(-84.702 -107.48)">
<path d="m120.09 178.71-35.388-0.0671v-5.34c0-4.0423 0.10455-5.762 0.43025-7.0766 0.90997-3.6731 2.784-6.8592 5.8176-9.8907 4.4571-4.4541 10.149-6.9247 16.704-7.2501 2.8474-0.14137 3.018-0.11951 3.9688 0.50822 1.8183 1.2006 2.3047 1.4489 3.9412 2.0125 4.2289 1.4564 9.1808 0.79249 12.834-1.7206l1.3712-0.94323 3.0651 0.14294c1.8208 0.0849 3.9243 0.36887 5.1817 0.69946 2.8241 0.74253 7.5338 3.1077 9.6531 4.8477 3.5186 2.8889 6.4229 7.1893 7.5506 11.18 0.49818 1.763 0.9063 12.467 0.48761 12.789-0.12586 0.0967-16.153 0.14571-35.617 0.1088zm-3.3034-31.165c-5.278-1.4214-10.077-6.2168-12.595-12.587-3.198-8.0882-2.4474-16.366 1.9646-21.668 1.6651-2.0009 4.7897-4.0512 7.518-4.9334 2.8542-0.9229 7.7508-1.1522 11-0.51511 6.2983 1.2351 11.173 5.6796 12.834 11.701 0.57943 2.1005 0.777 6.7234 0.3981 9.3147-1.2858 8.7934-7.3755 16.875-14.024 18.61-2.1072 0.55008-5.2138 0.58387-7.0952 0.0772zm7.9444-3.8968c3.305-1.583 5.8853-4.3678 8.1585-8.805 1.7325-3.3819 2.2273-5.7601 1.8265-8.7798-0.32197-2.4259-0.93919-4.1845-1.6846-4.7998-0.68378-0.56447-2.5317-0.65437-4.2762-0.20802-4.948 1.266-8.7128 0.56151-11.886-2.2242-0.48637-0.42704-0.9422-0.77643-1.013-0.77643-0.0708 0-0.5906 0.78992-1.1552 1.7554-1.6753 2.8647-3.4089 4.0016-6.8013 4.4602-1.7323 0.23421-2.296 0.84766-2.296 2.4983 0 4.607 2.7787 10.864 6.3546 14.309 2.7567 2.6559 5.4443 3.7504 8.8035 3.5851 1.676-0.0824 2.4178-0.27217 3.9688-1.015z" fill="#020202" stroke-width=".26458"/>
</g>
</svg>
