<?xml version="1.0" encoding="UTF-8"?>
<svg width="52.778mm" height="54.758mm" version="1.1" viewBox="0 0 52.778 54.758" xmlns="http://www.w3.org/2000/svg">
<g transform="translate(-98.226 -77.831)">
<path d="m100.15 132.2c-0.47007-0.20435-1.0947-0.76524-1.3881-1.2464-0.52475-0.86069-0.5334-1.2761-0.53438-25.64l-9.9e-4 -24.766 0.60059-0.89902c1.2743-1.9076 0.32728-1.8249 20.831-1.8188 17.642 0.0052 18.435 0.0263 19.522 0.51982 0.86527 0.39272 1.2551 0.78257 1.6478 1.6478 0.4702 1.036 0.51492 1.7774 0.52023 8.6263l6e-3 7.4928-3.8365 6.8995-0.0692-10.612-0.0691-10.612h-35.448v46.831h35.454v-5.6133l3.8365-6.822 0.0708 6.6537c0.0661 6.2134 0.0354 6.7267-0.46287 7.7561-1.0134 2.0933 0.0266 1.9956-21.114 1.9839-15.466-9e-3 -18.859-0.0748-19.565-0.38191zm15.678-6.77c-1.0951-0.32301-1.7132-1.2304-1.7202-2.5251-0.0152-2.8056 3.8312-3.6006 4.9115-1.0151 0.89473 2.1414-0.95957 4.1984-3.1912 3.5402zm-9.684-0.75485c-1.0538-1.0537-1.0562-2.3413-7e-3 -3.5159 0.63446-0.71008 0.95853-0.85806 1.8792-0.85806s1.2447 0.14798 1.8792 0.85806c1.0495 1.1746 1.047 2.4622-7e-3 3.5159-0.60656 0.60656-1.0105 0.7734-1.8724 0.7734s-1.2659-0.16684-1.8724-0.7734zm24.628-2.305 1e-3 -2.3455 2.5425-4.3656c4.3762-7.5141 10.729-18.363 11.108-18.969l0.36269-0.58034 1.7425 1.0183c0.95838 0.56005 1.8062 1.0819 1.884 1.1597 0.0778 0.0778-0.68443 1.5476-1.6939 3.2662-1.0094 1.7186-4.1309 7.0815-6.9366 11.917-4.9192 8.4788-5.1498 8.8226-6.4611 9.6289-0.74788 0.4599-1.6277 1.0115-1.9551 1.2257l-0.59531 0.38955 1e-3 -2.3455zm-25.168-5.9836c-0.0174-0.0364-0.059-0.63169-0.0923-1.3229l-0.0606-1.2568h21.88v2.6458h-10.848c-5.9664 0-10.862-0.0298-10.88-0.0661zm-0.12236-7.6068 0.0206-1.3229h28.444v2.6458h-28.485zm0-6.6146 0.0206-1.3229h21.829v2.6458h-21.87zm-0.0172-6.0854-6e-3 -1.3229h28.488v2.6458h-28.475l-6e-3 -1.3229zm42.769-0.15323c-0.65485-0.37181-1.4584-0.84926-1.7856-1.061l-0.59493-0.38498 0.69668-1.1186c0.38318-0.61525 0.73121-1.1592 0.7734-1.2089 0.0977-0.11491 3.5111 1.7876 3.6708 2.0459 0.14034 0.22707-1.1178 2.4115-1.3863 2.4068-0.10089-2e-3 -0.71922-0.3074-1.3741-0.67921zm-42.095-5.3506c-0.63599-0.0739-0.6852-0.17268-0.65877-1.3229l0.0286-1.2431 21.823-0.1382v1.3258c0 0.87379-0.11276 1.3326-0.33073 1.3455-1.1365 0.0677-20.302 0.0978-20.862 0.0328z" fill="#016099" stroke-width=".26458"/>
</g>
</svg>
